<mxfile host="app.diagrams.net" modified="2023-08-15T00:05:46.285Z" agent="Mozilla/5.0 (Windows NT 10.0; Win64; x64) AppleWebKit/537.36 (KHTML, like Gecko) Chrome/115.0.0.0 Safari/537.36" etag="_V_6meH7FGdefB2hkDO7" version="21.6.8" type="github">
  <diagram name="Page-1" id="2YBvvXClWsGukQMizWep">
    <mxGraphModel dx="1500" dy="774" grid="1" gridSize="10" guides="1" tooltips="1" connect="1" arrows="1" fold="1" page="1" pageScale="1" pageWidth="1100" pageHeight="850" background="#FFFFFF" math="0" shadow="0">
      <root>
        <mxCell id="0" />
        <mxCell id="1" parent="0" />
        <mxCell id="Vc_qNqWKN2TwWsNFO-2Q-7" value="&lt;font face=&quot;Tahoma&quot; size=&quot;1&quot; style=&quot;&quot;&gt;&lt;b style=&quot;font-size: 34px;&quot;&gt;POSTAL CODE (Oracle)&lt;/b&gt;&lt;/font&gt;" style="rounded=1;whiteSpace=wrap;html=1;fillColor=#52A8FF;strokeColor=#36393d;strokeWidth=2;flipH=1;flipV=1;" parent="1" vertex="1">
          <mxGeometry x="120" y="90" width="860" height="60" as="geometry" />
        </mxCell>
        <mxCell id="Vc_qNqWKN2TwWsNFO-2Q-20" value="" style="rounded=1;whiteSpace=wrap;html=1;fontSize=17;fontStyle=1;fillColor=#000000;strokeColor=#04A597;strokeWidth=3;arcSize=5;container=0;" parent="1" vertex="1">
          <mxGeometry x="285" y="280" width="520" height="480" as="geometry" />
        </mxCell>
        <mxCell id="Vc_qNqWKN2TwWsNFO-2Q-21" value="" style="rounded=1;whiteSpace=wrap;html=1;fontSize=17;fontStyle=1;fillColor=#000000;strokeColor=#FF3333;strokeWidth=3;" parent="1" vertex="1">
          <mxGeometry x="885" y="280" width="190" height="480" as="geometry" />
        </mxCell>
        <mxCell id="Vc_qNqWKN2TwWsNFO-2Q-13" value="" style="rounded=1;whiteSpace=wrap;html=1;fontSize=17;fontStyle=1;fillColor=#000000;strokeColor=#9D649E;strokeWidth=3;container=0;labelBackgroundColor=#000000;fontColor=#FFFFFF;" parent="1" vertex="1">
          <mxGeometry x="25" y="280" width="180" height="480" as="geometry" />
        </mxCell>
        <mxCell id="Vc_qNqWKN2TwWsNFO-2Q-92" value="" style="group" parent="1" vertex="1" connectable="0">
          <mxGeometry x="69" y="295" width="89.64426877470356" height="448.22134387351775" as="geometry" />
        </mxCell>
        <mxCell id="Vc_qNqWKN2TwWsNFO-2Q-27" value="" style="shape=image;html=1;verticalAlign=top;verticalLabelPosition=bottom;labelBackgroundColor=#ffffff;imageAspect=0;aspect=fixed;image=https://cdn1.iconfinder.com/data/icons/DarkGlass_Reworked/128x128/mimetypes/zip3.png;container=0;" parent="Vc_qNqWKN2TwWsNFO-2Q-92" vertex="1">
          <mxGeometry width="89.64426877470355" height="89.64426877470355" as="geometry" />
        </mxCell>
        <mxCell id="Vc_qNqWKN2TwWsNFO-2Q-29" value="" style="shape=image;html=1;verticalAlign=top;verticalLabelPosition=bottom;labelBackgroundColor=#ffffff;imageAspect=0;aspect=fixed;image=https://cdn0.iconfinder.com/data/icons/Hosting_Icons/128/ftp-px-png.png;container=0;" parent="Vc_qNqWKN2TwWsNFO-2Q-92" vertex="1">
          <mxGeometry y="170.32411067193675" width="89.64426877470355" height="89.64426877470355" as="geometry" />
        </mxCell>
        <mxCell id="Vc_qNqWKN2TwWsNFO-2Q-30" value="" style="shape=image;html=1;verticalAlign=top;verticalLabelPosition=bottom;labelBackgroundColor=#ffffff;imageAspect=0;aspect=fixed;image=https://cdn3.iconfinder.com/data/icons/cad-database-presentation-spreadsheet-vector-fil-2/512/19-128.png;container=0;" parent="Vc_qNqWKN2TwWsNFO-2Q-92" vertex="1">
          <mxGeometry y="358.57707509881425" width="89.64426877470355" height="89.64426877470355" as="geometry" />
        </mxCell>
        <mxCell id="Vc_qNqWKN2TwWsNFO-2Q-32" value="" style="html=1;shadow=0;dashed=0;align=center;verticalAlign=middle;shape=mxgraph.arrows2.stylisedArrow;dy=0.6;dx=40;notch=15;feather=0.4;direction=south;container=0;fillColor=#cce5ff;gradientColor=#707E8C;strokeColor=#36393d;strokeWidth=3;" parent="Vc_qNqWKN2TwWsNFO-2Q-92" vertex="1">
          <mxGeometry x="24.82213438735178" y="96.81581027667988" width="40" height="71.71541501976284" as="geometry" />
        </mxCell>
        <mxCell id="Vc_qNqWKN2TwWsNFO-2Q-33" value="" style="html=1;shadow=0;dashed=0;align=center;verticalAlign=middle;shape=mxgraph.arrows2.stylisedArrow;dy=0.6;dx=40;notch=15;feather=0.4;direction=south;container=0;fillColor=#cce5ff;gradientColor=#707E8C;strokeColor=#36393d;strokeWidth=3;" parent="Vc_qNqWKN2TwWsNFO-2Q-92" vertex="1">
          <mxGeometry x="24.82213438735178" y="268.93280632411074" width="40" height="71.71541501976284" as="geometry" />
        </mxCell>
        <mxCell id="Vc_qNqWKN2TwWsNFO-2Q-93" value="" style="group" parent="1" vertex="1" connectable="0">
          <mxGeometry x="900" y="480" width="160" height="139.77075098814237" as="geometry" />
        </mxCell>
        <mxCell id="Vc_qNqWKN2TwWsNFO-2Q-36" value="&lt;font style=&quot;font-size: 18px;&quot; face=&quot;Tahoma&quot;&gt;&lt;b style=&quot;&quot;&gt;AHSDATA&lt;br&gt;POSTAL_CODE&lt;/b&gt;&lt;/font&gt;" style="html=1;dashed=0;whiteSpace=wrap;shape=mxgraph.dfd.start;fillColor=#FF3333;" parent="Vc_qNqWKN2TwWsNFO-2Q-93" vertex="1">
          <mxGeometry width="160" height="60" as="geometry" />
        </mxCell>
        <mxCell id="Vc_qNqWKN2TwWsNFO-2Q-47" value="" style="sketch=0;outlineConnect=0;fontColor=#232F3E;gradientColor=none;fillColor=#FF3333;strokeColor=none;dashed=0;verticalLabelPosition=bottom;verticalAlign=top;align=center;html=1;fontSize=12;fontStyle=0;aspect=fixed;pointerEvents=1;shape=mxgraph.aws4.rds_oracle_instance;" parent="Vc_qNqWKN2TwWsNFO-2Q-93" vertex="1">
          <mxGeometry x="43.539999999999964" y="64.8537549407115" width="74.91699604743083" height="74.91699604743083" as="geometry" />
        </mxCell>
        <mxCell id="Vc_qNqWKN2TwWsNFO-2Q-25" value="&lt;font style=&quot;font-size: 18px;&quot; face=&quot;Tahoma&quot;&gt;&lt;b style=&quot;&quot;&gt;AHSDRREXTRACT&lt;br&gt;EX_POSTAL_CODE&lt;/b&gt;&lt;/font&gt;" style="html=1;dashed=0;whiteSpace=wrap;shape=mxgraph.dfd.start;fillColor=#04A597;container=0;" parent="1" vertex="1">
          <mxGeometry x="295" y="480" width="200" height="60" as="geometry" />
        </mxCell>
        <mxCell id="Vc_qNqWKN2TwWsNFO-2Q-26" value="&lt;font style=&quot;font-size: 18px;&quot; face=&quot;Tahoma&quot;&gt;&lt;b style=&quot;&quot;&gt;AHSDRRCONFORM&lt;br&gt;POSTAL_CODE&lt;/b&gt;&lt;/font&gt;" style="html=1;dashed=0;whiteSpace=wrap;shape=mxgraph.dfd.start;fillColor=#04A597;container=0;" parent="1" vertex="1">
          <mxGeometry x="595" y="480" width="200" height="60" as="geometry" />
        </mxCell>
        <mxCell id="Vc_qNqWKN2TwWsNFO-2Q-45" value="" style="sketch=0;outlineConnect=0;fontColor=#232F3E;gradientColor=none;fillColor=#04A597;strokeColor=none;dashed=0;verticalLabelPosition=bottom;verticalAlign=top;align=center;html=1;fontSize=12;fontStyle=0;aspect=fixed;pointerEvents=1;shape=mxgraph.aws4.rds_oracle_instance;container=0;strokeWidth=1;perimeterSpacing=0;" parent="1" vertex="1">
          <mxGeometry x="357" y="544.8537549407115" width="74.91699604743083" height="74.91699604743083" as="geometry" />
        </mxCell>
        <mxCell id="Vc_qNqWKN2TwWsNFO-2Q-46" value="" style="sketch=0;outlineConnect=0;fontColor=#232F3E;gradientColor=none;fillColor=#04A597;strokeColor=none;dashed=0;verticalLabelPosition=bottom;verticalAlign=top;align=center;html=1;fontSize=12;fontStyle=0;aspect=fixed;pointerEvents=1;shape=mxgraph.aws4.rds_oracle_instance;container=0;" parent="1" vertex="1">
          <mxGeometry x="657" y="544.8537549407115" width="74.91699604743083" height="74.91699604743083" as="geometry" />
        </mxCell>
        <mxCell id="Vc_qNqWKN2TwWsNFO-2Q-62" value="" style="sketch=0;html=1;aspect=fixed;strokeColor=none;shadow=0;fillColor=#52A8FF;verticalAlign=top;labelPosition=center;verticalLabelPosition=bottom;shape=mxgraph.gcp2.gear_load" parent="1" vertex="1">
          <mxGeometry x="475.37" y="350.0013043478261" width="139.26877470355728" height="128.12727272727273" as="geometry" />
        </mxCell>
        <mxCell id="Vc_qNqWKN2TwWsNFO-2Q-91" value="" style="html=1;shadow=0;dashed=0;align=center;verticalAlign=middle;shape=mxgraph.arrows2.stylisedArrow;dy=0.6;dx=40;notch=15;feather=0.4;direction=east;container=0;fillColor=#cce5ff;gradientColor=#707E8C;strokeColor=#36393d;strokeWidth=3;" parent="1" vertex="1">
          <mxGeometry x="505" y="490" width="80" height="40" as="geometry" />
        </mxCell>
        <mxCell id="Vc_qNqWKN2TwWsNFO-2Q-2" value="&lt;font style=&quot;font-size: 24px;&quot;&gt;Data Sources&lt;/font&gt;" style="rounded=1;whiteSpace=wrap;html=1;fontSize=17;fontStyle=1;fillColor=#9D649E;strokeColor=#000000;strokeWidth=3;fontFamily=Tahoma;gradientColor=#513352;container=0;" parent="1" vertex="1">
          <mxGeometry x="25" y="210" width="180" height="50" as="geometry" />
        </mxCell>
        <mxCell id="Vc_qNqWKN2TwWsNFO-2Q-6" value="&lt;font face=&quot;Tahoma&quot; style=&quot;font-size: 24px;&quot;&gt;Data Targets&lt;/font&gt;" style="rounded=1;whiteSpace=wrap;html=1;fontSize=17;fontStyle=1;strokeWidth=3;fillColor=#FF3333;strokeColor=#000000;gradientColor=#991F1F;container=0;" parent="1" vertex="1">
          <mxGeometry x="885" y="210" width="190" height="50" as="geometry" />
        </mxCell>
        <mxCell id="Vc_qNqWKN2TwWsNFO-2Q-19" value="&lt;font style=&quot;font-size: 24px;&quot;&gt;Data Flow (ETL)&lt;/font&gt;" style="rounded=1;whiteSpace=wrap;html=1;fontSize=17;fontStyle=1;strokeWidth=3;fontFamily=Tahoma;fillColor=#04A597;strokeColor=#000000;fontColor=#000000;gradientColor=#02635B;container=0;" parent="1" vertex="1">
          <mxGeometry x="285" y="210" width="520" height="50" as="geometry" />
        </mxCell>
        <mxCell id="100chPrVTd_6QktHDmDS-3" value="" style="html=1;shadow=0;dashed=0;align=center;verticalAlign=middle;shape=mxgraph.arrows2.arrow;dy=0;dx=30;notch=25;fillColor=#FF3333;strokeColor=#000000;strokeWidth=3;container=0;gradientColor=#04A597;gradientDirection=west;" vertex="1" parent="1">
          <mxGeometry x="806" y="210" width="75" height="50" as="geometry" />
        </mxCell>
        <mxCell id="100chPrVTd_6QktHDmDS-4" value="" style="html=1;shadow=0;dashed=0;align=center;verticalAlign=middle;shape=mxgraph.arrows2.arrow;dy=0;dx=30;notch=30;fillColor=#9D649E;strokeColor=#000000;strokeWidth=3;container=0;gradientColor=#04A597;gradientDirection=east;" vertex="1" parent="1">
          <mxGeometry x="206" y="210" width="75" height="50" as="geometry" />
        </mxCell>
        <mxCell id="100chPrVTd_6QktHDmDS-7" value="" style="html=1;shadow=0;dashed=0;align=center;verticalAlign=middle;shape=mxgraph.arrows2.arrow;dy=0;dx=30;notch=25;fillColor=#FF3333;strokeColor=#000000;strokeWidth=3;container=0;gradientColor=#04A597;gradientDirection=west;" vertex="1" parent="1">
          <mxGeometry x="807" y="485" width="75" height="50" as="geometry" />
        </mxCell>
        <mxCell id="100chPrVTd_6QktHDmDS-9" value="" style="html=1;shadow=0;dashed=0;align=center;verticalAlign=middle;shape=mxgraph.arrows2.arrow;dy=0;dx=30;notch=30;fillColor=#9D649E;strokeColor=#000000;strokeWidth=3;container=0;gradientColor=#04A597;gradientDirection=east;" vertex="1" parent="1">
          <mxGeometry x="206" y="485" width="75" height="50" as="geometry" />
        </mxCell>
      </root>
    </mxGraphModel>
  </diagram>
</mxfile>
